# xmcd
#
# Track frame offsets:
#	150
#	16182
#	29728
#	43344
#	58890
#	76745
#	79101
#	93546
#	110233
#	130334
#	141936
#	156745
#	163658
#	179245
#	194122
#
# Disc length: 2837 seconds
#
# Revision: 1
# Processed by: cddbd v1.5.2PL0 Copyright (c) Steve Scherf et al.
# Submitted via: audiograbber 1.83.01
#
DISCID=e80b130f
DTITLE=Grossstadtgeglüster - Tips&Tricks_Instrumentals
DYEAR=2019
DGENRE=Club-House
TTITLE0=Feierabend
TTITLE1=neue Freunde
TTITLE2=meine Couch
TTITLE3=das was Petet Pan sagt feat. Danger Dan
TTITLE4=Skalitzer Strasse
TTITLE5=Simsalabim *Skit
TTITLE6=Diadem
TTITLE7=Huxleys
TTITLE8=Anpassungsstörung
TTITLE9=Auf Allles
TTITLE10=Hallus feat. HGich.T
TTITLE11=Der springende Punkt *Skit
TTITLE12=Trotzdem
TTITLE13=meine Mama
TTITLE14=2080
EXTD=
EXTT0=
EXTT1=
EXTT2=
EXTT3=
EXTT4=
EXTT5=
EXTT6=
EXTT7=
EXTT8=
EXTT9=
EXTT10=
EXTT11=
EXTT12=
EXTT13=
EXTT14=
PLAYORDER=
